<svg width="24" height="24" viewBox="0 0 24 24" fill="none" xmlns="http://www.w3.org/2000/svg">
<path class="icon-outside" fill-rule="evenodd" clip-rule="evenodd" d="M15.9992 1.99953H20.9992H21.9992V2.99953V7.99953H19.9992V5.41375L12.7063 12.7066L11.2921 11.2924L18.585 3.99953H15.9992V1.99953ZM9.4 3.99951L9.34433 3.99951C8.26677 3.99949 7.37777 3.99947 6.66264 4.07695C5.91652 4.15779 5.24204 4.33247 4.64886 4.76344C4.30928 5.01016 4.01065 5.30879 3.76393 5.64837C3.33296 6.24155 3.15827 6.91604 3.07744 7.66215C2.99996 8.37728 2.99998 9.26629 3 10.3438V10.3995V14.5995V14.6552C2.99998 15.7327 2.99996 16.6217 3.07744 17.3369C3.15827 18.083 3.33296 18.7575 3.76393 19.3507C4.01065 19.6902 4.30928 19.9889 4.64886 20.2356C5.24204 20.6665 5.91652 20.8412 6.66264 20.9221C7.37776 20.9996 8.26676 20.9995 9.3443 20.9995H9.4H13.6H13.6557C14.7332 20.9995 15.6222 20.9996 16.3374 20.9221C17.0835 20.8412 17.758 20.6665 18.3511 20.2356C18.6907 19.9889 18.9893 19.6902 19.2361 19.3507C19.667 18.7575 19.8417 18.083 19.9226 17.3369C20 16.6218 20 15.7328 20 14.6552V14.5995V10.4541H18V14.5995C18 15.7467 17.9986 16.5268 17.9342 17.1214C17.8718 17.6974 17.76 17.9797 17.618 18.1751C17.4947 18.3449 17.3454 18.4942 17.1756 18.6175C16.9802 18.7595 16.6979 18.8713 16.1219 18.9337C15.5273 18.9981 14.7472 18.9995 13.6 18.9995H9.4C8.2528 18.9995 7.47273 18.9981 6.87807 18.9337C6.30212 18.8713 6.01985 18.7595 5.82443 18.6175C5.65464 18.4942 5.50532 18.3449 5.38197 18.1751C5.23999 17.9797 5.1282 17.6974 5.0658 17.1214C5.00137 16.5268 5 15.7467 5 14.5995V10.3995C5 9.25232 5.00137 8.47225 5.0658 7.87758C5.1282 7.30163 5.23999 7.01936 5.38197 6.82394C5.50533 6.65415 5.65464 6.50484 5.82443 6.38148C6.01985 6.2395 6.30212 6.12771 6.87807 6.06531C7.47273 6.00088 8.25281 5.99951 9.4 5.99951H13.5455V3.99951H9.4Z" fill="#6720FF"></path>
</svg>